<svg xmlns="http://www.w3.org/2000/svg" width="900" height="900" viewBox="0 0 900 900">
<style>
        @import url('https://fonts.googleapis.com/css2?family=Inter:wght@400;500;600;700;800;900&amp;family=Cinzel:wght@400;500;600;700;800;900&amp;display=swap');

        /* Background */
        .chart-bg { fill: #FAFBFC; }
        .outer-ring { fill: none; stroke: #E1E4E8; stroke-width: 3; }
        .inner-bg { fill: #FFFFFF; }
        .center-circle { fill: #F6F8FA; stroke: #E1E4E8; stroke-width: 2; }

        /* Zodiac band - larger text and thicker lines for mobile */
        .zodiac-band   { fill: #000000; }
        .zodiac-cutout { fill: #FFFFFF; }
        .zodiac-divider { stroke: #FFFFFF; stroke-width: 2; }

        .sign-text { 
            font: 800 18px 'Inter', -apple-system, BlinkMacSystemFont, 'Segoe UI', Roboto, sans-serif; 
            fill: #FFFFFF; 
            text-anchor: middle; 
            dominant-baseline: middle; 
            letter-spacing: 1px; 
            text-transform: uppercase;
            text-shadow: 0 2px 4px rgba(0,0,0,0.6);
        }
        
        /* Houses - more visible */
        .house-circle { fill: none; stroke: #D0D7DE; stroke-width: 2.5; }
        .house-line { stroke: #D0D7DE; stroke-width: 2; opacity: 0.7; }
        .house-num { 
            font: 700 22px 'Cinzel', serif; 
            fill: #1A1A1A; 
            text-anchor: middle; 
            dominant-baseline: middle;
            letter-spacing: 0.5px;
        }
        
        /* Angles - larger and more prominent */
        .angle-tick { stroke: #4A5568; stroke-width: 1.5; stroke-linecap: round; }
        .angle-marker-outer { fill: #2C3E50; }
        .angle-marker-inner { fill: #FFD700; }
        .angle-text-bg { fill: #2C3E50; rx: 4; }
        .angle-text { 
            font: 900 16px 'Inter', -apple-system, BlinkMacSystemFont, 'Segoe UI', Roboto, sans-serif; 
            fill: #FFFFFF; 
            text-anchor: middle; 
            dominant-baseline: middle;
            text-transform: uppercase;
            letter-spacing: 1.2px;
        }
        
        /* Planets - VERY LARGE black glyphs with NO background */
        .planet-glyph { 
            font: 400 44px serif; 
            text-anchor: middle; 
            dominant-baseline: middle;
            fill: #1A1A1A;
            filter: url(#glyph-glow);
        }
        .planet-degree { 
            font: 600 13px 'Inter', -apple-system, BlinkMacSystemFont, 'Segoe UI', Roboto, sans-serif; 
            text-anchor: middle; 
            dominant-baseline: middle;
            fill: #2C3E50;
            font-weight: 600;
        }
        
        /* Aspects - thicker lines */
        .aspect { fill: none; stroke-linecap: round; }
        </style>
<defs>

            <filter id="planet-shadow" x="-50%" y="-50%" width="200%" height="200%">
                <feDropShadow dx="0" dy="2" stdDeviation="3" flood-opacity="0.15"/>
            </filter>
        

            <filter id="glyph-glow">
                <feGaussianBlur stdDeviation="1.5" result="coloredBlur"/>
                <feMerge>
                    <feMergeNode in="coloredBlur"/>
                    <feMergeNode in="SourceGraphic"/>
                </feMerge>
            </filter>
        

            <filter id="angle-glow">
                <feGaussianBlur stdDeviation="3" result="coloredBlur"/>
                <feMerge>
                    <feMergeNode in="coloredBlur"/>
                    <feMergeNode in="SourceGraphic"/>
                </feMerge>
            </filter>
        

            <radialGradient id="center-gradient">
                <stop offset="0%" style="stop-color:#FFFFFF;stop-opacity:1" />
                <stop offset="100%" style="stop-color:#F6F8FA;stop-opacity:1" />
            </radialGradient>
        
</defs>
<rect class="chart-bg" width="900" height="900"/>
<circle class="outer-ring" cx="450" cy="450" r="432.0"/>
<circle class="zodiac-band"   cx="450" cy="450" r="396.0"/>
<circle class="zodiac-cutout" cx="450" cy="450" r="333.0"/>
<circle cx="450" cy="450" r="333.0" fill="none" stroke="#FFFFFF" stroke-width="2"/>
<line class="zodiac-divider" x1="775.6" y1="519.6" x2="837.3" y2="532.8"/>
<line class="zodiac-divider" x1="697.2" y1="673.1" x2="744.0" y2="715.3"/>
<line class="zodiac-divider" x1="552.5" y1="766.8" x2="571.9" y2="826.8"/>
<line class="zodiac-divider" x1="380.4" y1="775.6" x2="367.2" y2="837.3"/>
<line class="zodiac-divider" x1="226.9" y1="697.2" x2="184.7" y2="744.0"/>
<line class="zodiac-divider" x1="133.2" y1="552.5" x2="73.2" y2="571.9"/>
<line class="zodiac-divider" x1="124.4" y1="380.4" x2="62.7" y2="367.2"/>
<line class="zodiac-divider" x1="202.8" y1="226.9" x2="156.0" y2="184.7"/>
<line class="zodiac-divider" x1="347.5" y1="133.2" x2="328.1" y2="73.2"/>
<line class="zodiac-divider" x1="519.6" y1="124.4" x2="532.8" y2="62.7"/>
<line class="zodiac-divider" x1="673.1" y1="202.8" x2="715.3" y2="156.0"/>
<line class="zodiac-divider" x1="766.8" y1="347.5" x2="826.8" y2="328.1"/>
<text class="sign-text" x="774.6" y="615.8" transform="rotate(-62.9 774.6 615.8)">ARIES</text>
<text class="sign-text" x="648.2" y="755.9" transform="rotate(-32.9 648.2 755.9)">TAURUS</text>
<text class="sign-text" x="468.7" y="814.0" transform="rotate(-2.9 468.7 814.0)">GEMINI</text>
<text class="sign-text" x="284.2" y="774.6" transform="rotate(27.1 284.2 774.6)">CANCER</text>
<text class="sign-text" x="144.1" y="648.2" transform="rotate(57.1 144.1 648.2)">LEO</text>
<text class="sign-text" x="86.0" y="468.7" transform="rotate(87.1 86.0 468.7)">VIRGO</text>
<text class="sign-text" x="125.4" y="284.2" transform="rotate(-62.9 125.4 284.2)">LIBRA</text>
<text class="sign-text" x="251.8" y="144.1" transform="rotate(-32.9 251.8 144.1)">SCORPIO</text>
<text class="sign-text" x="431.3" y="86.0" transform="rotate(-2.9 431.3 86.0)">SAGITTARIUS</text>
<text class="sign-text" x="615.8" y="125.4" transform="rotate(27.1 615.8 125.4)">CAPRICORN</text>
<text class="sign-text" x="755.9" y="251.8" transform="rotate(57.1 755.9 251.8)">AQUARIUS</text>
<text class="sign-text" x="814.0" y="431.3" transform="rotate(87.1 814.0 431.3)">PISCES</text>
<circle class="house-circle" cx="450" cy="450" r="315.0"/>
<circle class="house-circle" cx="450" cy="450" r="252.00000000000003"/>
<line class="house-line" x1="198.0" y1="450.0" x2="135.0" y2="450.0"/>
<text class="house-num" x="171.9" y="395.0">1</text>
<line class="house-line" x1="216.9" y1="354.2" x2="158.7" y2="330.2"/>
<text class="house-num" x="222.7" y="280.6">2</text>
<line class="house-line" x1="291.5" y1="254.1" x2="251.8" y2="205.1"/>
<text class="house-num" x="346.8" y="186.0">3</text>
<line class="house-line" x1="433.7" y1="198.5" x2="429.6" y2="135.7"/>
<text class="house-num" x="522.3" y="175.9">4</text>
<line class="house-line" x1="588.3" y1="239.3" x2="622.8" y2="186.7"/>
<text class="house-num" x="664.0" y="264.0">5</text>
<line class="house-line" x1="677.9" y1="342.5" x2="734.9" y2="315.6"/>
<text class="house-num" x="726.6" y="388.0">6</text>
<line class="house-line" x1="702.0" y1="450.0" x2="765.0" y2="450.0"/>
<text class="house-num" x="728.1" y="505.0">7</text>
<line class="house-line" x1="683.1" y1="545.8" x2="741.3" y2="569.8"/>
<text class="house-num" x="677.3" y="619.4">8</text>
<line class="house-line" x1="608.5" y1="645.9" x2="648.2" y2="694.9"/>
<text class="house-num" x="553.2" y="714.0">9</text>
<line class="house-line" x1="466.3" y1="701.5" x2="470.4" y2="764.3"/>
<text class="house-num" x="377.7" y="724.1">10</text>
<line class="house-line" x1="311.7" y1="660.7" x2="277.2" y2="713.3"/>
<text class="house-num" x="236.0" y="636.0">11</text>
<line class="house-line" x1="222.1" y1="557.5" x2="165.1" y2="584.4"/>
<text class="house-num" x="173.4" y="512.0">12</text>
<circle class="center-circle" cx="450" cy="450" r="180.0"/>
<line class="angle-tick" x1="133.0" y1="450.0" x2="119.0" y2="450.0"/>
<circle class="angle-marker-outer" cx="129.0" cy="450.0" r="7" filter="url(#angle-glow)"/>
<circle class="angle-marker-inner" cx="129.0" cy="450.0" r="3.5"/>
<rect class="angle-text-bg" x="125.0" y="441.0" width="40" height="18"/>
<text class="angle-text" x="145.0" y="450.0">ASC</text>
<line class="angle-tick" x1="767.0" y1="450.0" x2="781.0" y2="450.0"/>
<circle class="angle-marker-outer" cx="771.0" cy="450.0" r="7" filter="url(#angle-glow)"/>
<circle class="angle-marker-inner" cx="771.0" cy="450.0" r="3.5"/>
<rect class="angle-text-bg" x="735.0" y="441.0" width="40" height="18"/>
<text class="angle-text" x="755.0" y="450.0">DS</text>
<line class="angle-tick" x1="470.5" y1="766.3" x2="471.4" y2="780.3"/>
<circle class="angle-marker-outer" cx="470.8" cy="770.3" r="7" filter="url(#angle-glow)"/>
<circle class="angle-marker-inner" cx="470.8" cy="770.3" r="3.5"/>
<rect class="angle-text-bg" x="449.8" y="745.4" width="40" height="18"/>
<text class="angle-text" x="469.8" y="754.4">MC</text>
<line class="angle-tick" x1="429.5" y1="133.7" x2="428.6" y2="119.7"/>
<circle class="angle-marker-outer" cx="429.2" cy="129.7" r="7" filter="url(#angle-glow)"/>
<circle class="angle-marker-inner" cx="429.2" cy="129.7" r="3.5"/>
<rect class="angle-text-bg" x="410.2" y="136.6" width="40" height="18"/>
<text class="angle-text" x="430.2" y="145.6">IC</text>
<g transform="translate(632.8,535.0)">
<text class="planet-glyph" style="font-size:44px;" x="0" y="2">♀</text>
</g>
<g transform="translate(579.4,604.6)">
<text class="planet-glyph" style="font-size:44px;" x="0" y="2">☿</text>
</g>
<g transform="translate(530.3,634.9)">
<text class="planet-glyph" style="font-size:62px;" x="0" y="2">☉</text>
</g>
<g transform="translate(375.7,637.4)">
<text class="planet-glyph" style="font-size:44px;" x="0" y="2">♃</text>
</g>
<g transform="translate(343.9,278.6)">
<text class="planet-glyph" style="font-size:44px;" x="0" y="2">♇</text>
</g>
<g transform="translate(523.1,262.1)">
<text class="planet-glyph" style="font-size:44px;" x="0" y="2">♅</text>
</g>
<g transform="translate(526.3,296.3)">
<text class="planet-glyph" style="font-size:44px;" x="0" y="2">♆</text>
</g>
<g transform="translate(590.4,265.8)">
<text class="planet-glyph" style="font-size:44px;" x="0" y="2">♄</text>
</g>
<g transform="translate(560.1,318.4)">
<text class="planet-glyph" style="font-size:44px;" x="0" y="2">☽</text>
</g>
<g transform="translate(609.5,326.8)">
<text class="planet-glyph" style="font-size:44px;" x="0" y="2">☊</text>
</g>
<g transform="translate(651.6,451.5)">
<text class="planet-glyph" style="font-size:44px;" x="0" y="2">♂</text>
</g>
<g opacity="0.8">
<line class="aspect" stroke="#000000" stroke-width="1.5" opacity="0.9" x1="553.9" y1="325.7" x2="548.2" y2="321.2"/>
<line class="aspect" stroke="#000000" stroke-width="1.5" opacity="0.9" x1="508.7" y1="299.0" x2="522.1" y2="304.9"/>
<line class="aspect" stroke="#000000" stroke-width="1.5" opacity="0.85" x1="390.3" y1="600.6" x2="508.7" y2="299.0"/>
<line class="aspect" stroke="#000000" stroke-width="1.5" opacity="0.85" x1="390.3" y1="600.6" x2="522.1" y2="304.9"/>
<line class="aspect" stroke="#000000" stroke-width="1.5" opacity="0.85" x1="596.9" y1="518.3" x2="522.1" y2="304.9"/>
<line class="aspect" stroke="#000000" stroke-width="1.5" opacity="0.85" x1="554.0" y1="574.2" x2="578.2" y2="351.0"/>
<line class="aspect" stroke="#000000" stroke-width="1.5" opacity="0.85" x1="596.9" y1="518.3" x2="390.3" y2="600.6"/>
<line class="aspect" stroke="#000000" stroke-width="1.5" opacity="0.85" x1="596.9" y1="518.3" x2="508.7" y2="299.0"/>
<line class="aspect" stroke="#000000" stroke-width="1.5" opacity="0.85" x1="364.7" y1="312.3" x2="578.2" y2="351.0"/>
<line class="aspect" stroke="#000000" stroke-width="1.5" opacity="0.85" stroke-dasharray="5,5" x1="514.6" y1="598.6" x2="548.2" y2="321.2"/>
<line class="aspect" stroke="#000000" stroke-width="1.5" opacity="0.85" stroke-dasharray="5,5" x1="554.0" y1="574.2" x2="508.7" y2="299.0"/>
<line class="aspect" stroke="#000000" stroke-width="1.5" opacity="0.85" stroke-dasharray="5,5" x1="612.0" y1="451.2" x2="364.7" y2="312.3"/>
<line class="aspect" stroke="#000000" stroke-width="1.5" opacity="0.85" stroke-dasharray="5,5" x1="514.6" y1="598.6" x2="553.9" y2="325.7"/>
<line class="aspect" stroke="#000000" stroke-width="1" opacity="0.8" stroke-dasharray="3,3" x1="554.0" y1="574.2" x2="390.3" y2="600.6"/>
<line class="aspect" stroke="#000000" stroke-width="1" opacity="0.8" stroke-dasharray="3,3" x1="522.1" y1="304.9" x2="364.7" y2="312.3"/>
<line class="aspect" stroke="#000000" stroke-width="1" opacity="0.8" stroke-dasharray="3,3" x1="596.9" y1="518.3" x2="578.2" y2="351.0"/>
<line class="aspect" stroke="#000000" stroke-width="1" opacity="0.65" stroke-dasharray="5,5" x1="514.6" y1="598.6" x2="390.3" y2="600.6"/>
<line class="aspect" stroke="#000000" stroke-width="1" opacity="0.65" stroke-dasharray="5,5" x1="514.6" y1="598.6" x2="508.7" y2="299.0"/>
<line class="aspect" stroke="#000000" stroke-width="1" opacity="0.6" stroke-dasharray="3,3" x1="553.9" y1="325.7" x2="364.7" y2="312.3"/>
<line class="aspect" stroke="#000000" stroke-width="1" opacity="0.7" stroke-dasharray="8,8" x1="390.3" y1="600.6" x2="578.2" y2="351.0"/>
<line class="aspect" stroke="#000000" stroke-width="1" opacity="0.6" stroke-dasharray="3,3" x1="508.7" y1="299.0" x2="578.2" y2="351.0"/>
</g>
</svg>