<svg xmlns="http://www.w3.org/2000/svg" width="900" height="900" viewBox="0 0 900 900">
<style>
        @import url('https://fonts.googleapis.com/css2?family=Inter:wght@400;500;600;700;800;900&amp;family=Cinzel:wght@400;500;600;700;800;900&amp;display=swap');

        /* Background */
        .chart-bg { fill: #FAFBFC; }
        .outer-ring { fill: none; stroke: #E1E4E8; stroke-width: 3; }
        .inner-bg { fill: #FFFFFF; }
        .center-circle { fill: #F6F8FA; stroke: #E1E4E8; stroke-width: 2; }

        /* Zodiac band - larger text and thicker lines for mobile */
        .zodiac-band   { fill: #000000; }
        .zodiac-cutout { fill: #FFFFFF; }
        .zodiac-divider { stroke: #FFFFFF; stroke-width: 2; }

        .sign-text { 
            font: 800 18px 'Inter', -apple-system, BlinkMacSystemFont, 'Segoe UI', Roboto, sans-serif; 
            fill: #FFFFFF; 
            text-anchor: middle; 
            dominant-baseline: middle; 
            letter-spacing: 1px; 
            text-transform: uppercase;
            text-shadow: 0 2px 4px rgba(0,0,0,0.6);
        }
        
        /* Houses - more visible */
        .house-circle { fill: none; stroke: #D0D7DE; stroke-width: 2.5; }
        .house-line { stroke: #D0D7DE; stroke-width: 2; opacity: 0.7; }
        .house-num { 
            font: 700 22px 'Cinzel', serif; 
            fill: #1A1A1A; 
            text-anchor: middle; 
            dominant-baseline: middle;
            letter-spacing: 0.5px;
        }
        
        /* Angles - larger and more prominent */
        .angle-tick { stroke: #4A5568; stroke-width: 1.5; stroke-linecap: round; }
        .angle-marker-outer { fill: #2C3E50; }
        .angle-marker-inner { fill: #FFD700; }
        .angle-text-bg { fill: #2C3E50; rx: 4; }
        .angle-text { 
            font: 900 16px 'Inter', -apple-system, BlinkMacSystemFont, 'Segoe UI', Roboto, sans-serif; 
            fill: #FFFFFF; 
            text-anchor: middle; 
            dominant-baseline: middle;
            text-transform: uppercase;
            letter-spacing: 1.2px;
        }
        
        /* Planets - VERY LARGE black glyphs with NO background */
        .planet-glyph { 
            font: 400 44px serif; 
            text-anchor: middle; 
            dominant-baseline: middle;
            fill: #1A1A1A;
            filter: url(#glyph-glow);
        }
        .planet-degree { 
            font: 600 13px 'Inter', -apple-system, BlinkMacSystemFont, 'Segoe UI', Roboto, sans-serif; 
            text-anchor: middle; 
            dominant-baseline: middle;
            fill: #2C3E50;
            font-weight: 600;
        }
        
        /* Aspects - thicker lines */
        .aspect { fill: none; stroke-linecap: round; }
        </style>
<defs>

            <filter id="planet-shadow" x="-50%" y="-50%" width="200%" height="200%">
                <feDropShadow dx="0" dy="2" stdDeviation="3" flood-opacity="0.15"/>
            </filter>
        

            <filter id="glyph-glow">
                <feGaussianBlur stdDeviation="1.5" result="coloredBlur"/>
                <feMerge>
                    <feMergeNode in="coloredBlur"/>
                    <feMergeNode in="SourceGraphic"/>
                </feMerge>
            </filter>
        

            <filter id="angle-glow">
                <feGaussianBlur stdDeviation="3" result="coloredBlur"/>
                <feMerge>
                    <feMergeNode in="coloredBlur"/>
                    <feMergeNode in="SourceGraphic"/>
                </feMerge>
            </filter>
        

            <radialGradient id="center-gradient">
                <stop offset="0%" style="stop-color:#FFFFFF;stop-opacity:1" />
                <stop offset="100%" style="stop-color:#F6F8FA;stop-opacity:1" />
            </radialGradient>
        
</defs>
<rect class="chart-bg" width="900" height="900"/>
<circle class="outer-ring" cx="450" cy="450" r="432.0"/>
<circle class="zodiac-band"   cx="450" cy="450" r="396.0"/>
<circle class="zodiac-cutout" cx="450" cy="450" r="333.0"/>
<circle cx="450" cy="450" r="333.0" fill="none" stroke="#FFFFFF" stroke-width="2"/>
<line class="zodiac-divider" x1="735.8" y1="279.1" x2="789.9" y2="246.8"/>
<line class="zodiac-divider" x1="783.0" y1="444.9" x2="846.0" y2="443.9"/>
<line class="zodiac-divider" x1="740.9" y1="612.1" x2="795.9" y2="642.7"/>
<line class="zodiac-divider" x1="620.9" y1="735.8" x2="653.2" y2="789.9"/>
<line class="zodiac-divider" x1="455.1" y1="783.0" x2="456.1" y2="846.0"/>
<line class="zodiac-divider" x1="287.9" y1="740.9" x2="257.3" y2="795.9"/>
<line class="zodiac-divider" x1="164.2" y1="620.9" x2="110.1" y2="653.2"/>
<line class="zodiac-divider" x1="117.0" y1="455.1" x2="54.0" y2="456.1"/>
<line class="zodiac-divider" x1="159.1" y1="287.9" x2="104.1" y2="257.3"/>
<line class="zodiac-divider" x1="279.1" y1="164.2" x2="246.8" y2="110.1"/>
<line class="zodiac-divider" x1="444.9" y1="117.0" x2="443.9" y2="54.0"/>
<line class="zodiac-divider" x1="612.1" y1="159.1" x2="642.7" y2="104.1"/>
<text class="sign-text" x="800.6" y="350.3" transform="rotate(74.1 800.6 350.3)">ARIES</text>
<text class="sign-text" x="803.5" y="538.9" transform="rotate(-75.9 803.5 538.9)">TAURUS</text>
<text class="sign-text" x="711.7" y="703.8" transform="rotate(-45.9 711.7 703.8)">GEMINI</text>
<text class="sign-text" x="549.7" y="800.6" transform="rotate(-15.9 549.7 800.6)">CANCER</text>
<text class="sign-text" x="361.1" y="803.5" transform="rotate(14.1 361.1 803.5)">LEO</text>
<text class="sign-text" x="196.2" y="711.7" transform="rotate(44.1 196.2 711.7)">VIRGO</text>
<text class="sign-text" x="99.4" y="549.7" transform="rotate(74.1 99.4 549.7)">LIBRA</text>
<text class="sign-text" x="96.5" y="361.1" transform="rotate(-75.9 96.5 361.1)">SCORPIO</text>
<text class="sign-text" x="188.3" y="196.2" transform="rotate(-45.9 188.3 196.2)">SAGITTARIUS</text>
<text class="sign-text" x="350.3" y="99.4" transform="rotate(-15.9 350.3 99.4)">CAPRICORN</text>
<text class="sign-text" x="538.9" y="96.5" transform="rotate(14.1 538.9 96.5)">AQUARIUS</text>
<text class="sign-text" x="703.8" y="188.3" transform="rotate(44.1 703.8 188.3)">PISCES</text>
<circle class="house-circle" cx="450" cy="450" r="315.0"/>
<circle class="house-circle" cx="450" cy="450" r="252.00000000000003"/>
<line class="house-line" x1="198.0" y1="450.0" x2="135.0" y2="450.0"/>
<text class="house-num" x="175.2" y="380.4">1</text>
<line class="house-line" x1="228.4" y1="330.1" x2="173.0" y2="300.1"/>
<text class="house-num" x="247.8" y="251.3">2</text>
<line class="house-line" x1="326.1" y1="230.5" x2="295.2" y2="175.7"/>
<text class="house-num" x="390.0" y="172.9">3</text>
<line class="house-line" x1="472.1" y1="199.0" x2="477.6" y2="136.2"/>
<text class="house-num" x="553.9" y="186.2">4</text>
<line class="house-line" x1="605.1" y1="251.4" x2="643.9" y2="201.7"/>
<text class="house-num" x="674.1" y="276.3">5</text>
<line class="house-line" x1="681.0" y1="349.3" x2="738.8" y2="324.2"/>
<text class="house-num" x="727.5" y="392.2">6</text>
<line class="house-line" x1="702.0" y1="450.0" x2="765.0" y2="450.0"/>
<text class="house-num" x="724.8" y="519.6">7</text>
<line class="house-line" x1="671.6" y1="569.9" x2="727.0" y2="599.9"/>
<text class="house-num" x="652.2" y="648.7">8</text>
<line class="house-line" x1="573.9" y1="669.5" x2="604.8" y2="724.3"/>
<text class="house-num" x="510.0" y="727.1">9</text>
<line class="house-line" x1="427.9" y1="701.0" x2="422.4" y2="763.8"/>
<text class="house-num" x="346.1" y="713.8">10</text>
<line class="house-line" x1="294.9" y1="648.6" x2="256.1" y2="698.3"/>
<text class="house-num" x="225.9" y="623.7">11</text>
<line class="house-line" x1="219.0" y1="550.7" x2="161.2" y2="575.8"/>
<text class="house-num" x="172.5" y="507.8">12</text>
<circle class="center-circle" cx="450" cy="450" r="180.0"/>
<line class="angle-tick" x1="133.0" y1="450.0" x2="119.0" y2="450.0"/>
<circle class="angle-marker-outer" cx="129.0" cy="450.0" r="7" filter="url(#angle-glow)"/>
<circle class="angle-marker-inner" cx="129.0" cy="450.0" r="3.5"/>
<rect class="angle-text-bg" x="125.0" y="441.0" width="40" height="18"/>
<text class="angle-text" x="145.0" y="450.0">ASC</text>
<line class="angle-tick" x1="767.0" y1="450.0" x2="781.0" y2="450.0"/>
<circle class="angle-marker-outer" cx="771.0" cy="450.0" r="7" filter="url(#angle-glow)"/>
<circle class="angle-marker-inner" cx="771.0" cy="450.0" r="3.5"/>
<rect class="angle-text-bg" x="735.0" y="441.0" width="40" height="18"/>
<text class="angle-text" x="755.0" y="450.0">DS</text>
<line class="angle-tick" x1="422.3" y1="765.8" x2="421.0" y2="779.7"/>
<circle class="angle-marker-outer" cx="421.9" cy="769.8" r="7" filter="url(#angle-glow)"/>
<circle class="angle-marker-inner" cx="421.9" cy="769.8" r="3.5"/>
<rect class="angle-text-bg" x="403.3" y="744.8" width="40" height="18"/>
<text class="angle-text" x="423.3" y="753.8">MC</text>
<line class="angle-tick" x1="477.7" y1="134.2" x2="479.0" y2="120.3"/>
<circle class="angle-marker-outer" cx="478.1" cy="130.2" r="7" filter="url(#angle-glow)"/>
<circle class="angle-marker-inner" cx="478.1" cy="130.2" r="3.5"/>
<rect class="angle-text-bg" x="456.7" y="137.2" width="40" height="18"/>
<text class="angle-text" x="476.7" y="146.2">IC</text>
<g transform="translate(617.4,562.4)">
<text class="planet-glyph" style="font-size:44px;" x="0" y="2">☽</text>
</g>
<g transform="translate(404.5,646.4)">
<text class="planet-glyph" style="font-size:44px;" x="0" y="2">♀</text>
</g>
<g transform="translate(308.0,593.1)">
<text class="planet-glyph" style="font-size:62px;" x="0" y="2">☉</text>
</g>
<g transform="translate(263.4,587.2)">
<text class="planet-glyph" style="font-size:44px;" x="0" y="2">☿</text>
</g>
<g transform="translate(254.7,499.8)">
<text class="planet-glyph" style="font-size:44px;" x="0" y="2">♃</text>
</g>
<g transform="translate(224.7,503.5)">
<text class="planet-glyph" style="font-size:44px;" x="0" y="2">♂</text>
</g>
<g transform="translate(263.4,373.8)">
<text class="planet-glyph" style="font-size:44px;" x="0" y="2">♇</text>
</g>
<g transform="translate(286.4,332.2)">
<text class="planet-glyph" style="font-size:44px;" x="0" y="2">☊</text>
</g>
<g transform="translate(406.4,253.2)">
<text class="planet-glyph" style="font-size:44px;" x="0" y="2">♅</text>
</g>
<g transform="translate(400.4,223.8)">
<text class="planet-glyph" style="font-size:44px;" x="0" y="2">♆</text>
</g>
<g transform="translate(534.1,266.8)">
<text class="planet-glyph" style="font-size:44px;" x="0" y="2">♄</text>
</g>
<g opacity="0.8">
<line class="aspect" stroke="#000000" stroke-width="1.5" opacity="0.9" x1="414.9" y1="291.8" x2="415.3" y2="291.8"/>
<line class="aspect" stroke="#000000" stroke-width="1.5" opacity="0.9" x1="292.4" y1="487.5" x2="293.0" y2="490.0"/>
<line class="aspect" stroke="#000000" stroke-width="1.5" opacity="0.85" x1="584.5" y1="540.3" x2="318.5" y2="355.4"/>
<line class="aspect" stroke="#000000" stroke-width="1.5" opacity="0.85" x1="292.4" y1="487.5" x2="414.9" y2="291.8"/>
<line class="aspect" stroke="#000000" stroke-width="1.5" opacity="0.85" x1="292.4" y1="487.5" x2="415.3" y2="291.8"/>
<line class="aspect" stroke="#000000" stroke-width="1.5" opacity="0.85" x1="293.0" y1="490.0" x2="414.9" y2="291.8"/>
<line class="aspect" stroke="#000000" stroke-width="1.5" opacity="0.85" x1="293.0" y1="490.0" x2="415.3" y2="291.8"/>
<line class="aspect" stroke="#000000" stroke-width="1.5" opacity="0.85" x1="517.6" y1="302.8" x2="300.0" y2="388.8"/>
<line class="aspect" stroke="#000000" stroke-width="1.5" opacity="0.85" stroke-dasharray="5,5" x1="335.9" y1="565.0" x2="414.9" y2="291.8"/>
<line class="aspect" stroke="#000000" stroke-width="1.5" opacity="0.85" stroke-dasharray="5,5" x1="335.9" y1="565.0" x2="415.3" y2="291.8"/>
<line class="aspect" stroke="#000000" stroke-width="1" opacity="0.8" stroke-dasharray="3,3" x1="319.5" y1="546.0" x2="300.0" y2="388.8"/>
<line class="aspect" stroke="#000000" stroke-width="1" opacity="0.8" stroke-dasharray="3,3" x1="413.4" y1="607.8" x2="293.0" y2="490.0"/>
<line class="aspect" stroke="#000000" stroke-width="1" opacity="0.8" stroke-dasharray="3,3" x1="413.4" y1="607.8" x2="292.4" y2="487.5"/>
<line class="aspect" stroke="#000000" stroke-width="1" opacity="0.6" stroke-dasharray="3,3" x1="319.5" y1="546.0" x2="318.5" y2="355.4"/>
<line class="aspect" stroke="#000000" stroke-width="1" opacity="0.6" stroke-dasharray="3,3" x1="292.4" y1="487.5" x2="300.0" y2="388.8"/>
<line class="aspect" stroke="#000000" stroke-width="1" opacity="0.6" stroke-dasharray="3,3" x1="293.0" y1="490.0" x2="300.0" y2="388.8"/>
<line class="aspect" stroke="#000000" stroke-width="1" opacity="0.6" stroke-dasharray="3,3" x1="335.9" y1="565.0" x2="293.0" y2="490.0"/>
<line class="aspect" stroke="#000000" stroke-width="1" opacity="0.7" stroke-dasharray="8,8" x1="319.5" y1="546.0" x2="517.6" y2="302.8"/>
<line class="aspect" stroke="#000000" stroke-width="1" opacity="0.6" stroke-dasharray="3,3" x1="517.6" y1="302.8" x2="415.3" y2="291.8"/>
<line class="aspect" stroke="#000000" stroke-width="1" opacity="0.6" stroke-dasharray="3,3" x1="517.6" y1="302.8" x2="414.9" y2="291.8"/>
<line class="aspect" stroke="#000000" stroke-width="1" opacity="0.65" stroke-dasharray="5,5" x1="584.5" y1="540.3" x2="415.3" y2="291.8"/>
<line class="aspect" stroke="#000000" stroke-width="1" opacity="0.65" stroke-dasharray="5,5" x1="584.5" y1="540.3" x2="414.9" y2="291.8"/>
<line class="aspect" stroke="#000000" stroke-width="1" opacity="0.6" stroke-dasharray="3,3" x1="335.9" y1="565.0" x2="413.4" y2="607.8"/>
<line class="aspect" stroke="#000000" stroke-width="1" opacity="0.6" stroke-dasharray="3,3" x1="335.9" y1="565.0" x2="292.4" y2="487.5"/>
</g>
</svg>